<svg xmlns="http://www.w3.org/2000/svg" viewBox="0 0 283.46 283.46"><title>Only Logo</title><path d="M241.85,85.46C229.9,99,218.3,112.12,206.7,125.27q-25.18,28.56-50.37,57.14-28.07,31.8-56.14,63.58c-10.4,11.77-20.78,23.56-31.3,35.22a7.11,7.11,0,0,1-4.68,2.12c-20.16.14-40.33.05-60.5.13-2.76,0-3.57-1-3.57-3.67q0-50.31-.13-100.61a8.17,8.17,0,0,1,.26-1.46L41.59,214.3c5.81-6.56,11.51-13,17.18-19.39l62.86-71.28Q149.55,92,177.47,60.31q25.62-29,51.4-57.82A6.65,6.65,0,0,1,233.05.18c16.1-.14,32.21-.07,48.32,0a9.09,9.09,0,0,1,1.54.34V121.83Zm31-75.31c-12.2,0-24.22-.07-36.24.1-1.14,0-2.48,1.29-3.37,2.3q-28.08,31.81-56.08,63.7Q114,147.89,50.85,219.47c-5.46,6.2-11.49,6.53-17.78,1.05-6.71-5.85-13.34-11.8-20-17.68-.7-.61-1.51-1.09-2.55-1.83v72a12.8,12.8,0,0,0,1.77.26c16,0,32,.1,47.93-.07a7.08,7.08,0,0,0,4.48-2.45q55.8-63.18,111.46-126.47,28.17-32,56.41-63.93,8.25-9.33,17.79-1.18c4.87,4.17,9.61,8.5,14.41,12.76l8.11,7.14Z" transform="translate(0 0)" style="fill:#f1f1f1"/><path d="M202.47,1.11,39.94,185.66c-13-11.43-25.88-22.73-38.67-34.13A5,5,0,0,1,0,148.1C0,100,.11,51.94,0,3.86,0-.29,2.26,0,5,0Q84,0,162.93,0h39.13Zm-192,9.29c-.1.89-.21,1.4-.21,1.91q.06,65.46.22,130.91a6.61,6.61,0,0,0,2.14,4.2c6.16,5.68,12.49,11.18,18.77,16.72,2.5,2.21,5,4.39,7.59,6.62L180.55,10.4Z" transform="translate(0 0)" style="fill:#f1f1f1"/><path d="M243.54,114.22c11.32,10,22.14,20.11,33.6,29.42,5.08,4.12,6.37,8.49,6.32,14.68-.31,39.83-.24,79.67-.3,119.5,0,5.63,0,5.64-5.83,5.64H94.53Zm1,14.76L117.28,273.07H272.91a17.14,17.14,0,0,0,.26-2.07q-.07-57.39-.21-114.78a5.08,5.08,0,0,0-1.47-3.33C262.65,144.93,253.7,137.09,244.53,129Z" transform="translate(0 0)" style="fill:#f1f1f1"/></svg>